<svg width="50" height="51" viewBox="0 0 50 51" fill="none" xmlns="http://www.w3.org/2000/svg">
<path d="M46.2649 5.61512C46.0228 5.40607 45.7283 5.26704 45.413 5.21301C45.0978 5.15897 44.7738 5.19198 44.4759 5.30848L4.89383 20.7987C4.33287 21.0168 3.85794 21.4113 3.54056 21.9227C3.22318 22.4341 3.08052 23.0348 3.13406 23.6343C3.1876 24.2338 3.43444 24.7997 3.83742 25.2467C4.24039 25.6938 4.7777 25.9979 5.36844 26.1132L15.6243 28.1268V39.5624C15.6223 40.1853 15.8074 40.7944 16.1556 41.3109C16.5039 41.8273 16.9992 42.2272 17.5774 42.4589C18.1548 42.6946 18.7897 42.7512 19.3996 42.6213C20.0095 42.4914 20.5662 42.1809 20.9974 41.7304L25.9427 36.6014L33.7884 43.4686C34.3544 43.9707 35.0845 44.2486 35.8411 44.2499C36.1727 44.2496 36.5022 44.1976 36.8177 44.0956C37.3332 43.932 37.7969 43.6362 38.1625 43.2377C38.5281 42.8392 38.783 42.3518 38.9016 41.8241L46.8294 7.33582C46.9003 7.02479 46.8852 6.70032 46.7858 6.39719C46.6864 6.09407 46.5063 5.82372 46.2649 5.61512ZM34.3235 12.6464L16.8255 25.1776L7.13798 23.2772L34.3235 12.6464ZM18.7493 39.5624V30.289L23.5911 34.535L18.7493 39.5624ZM35.845 41.1249L19.6966 26.9647L42.9388 10.3065L35.845 41.1249Z" fill="white"/>
</svg>
