<svg width="50" height="51" viewBox="0 0 50 51" fill="none" xmlns="http://www.w3.org/2000/svg">
<path d="M41.1245 10.0251C39.0156 7.94788 36.5053 6.30129 33.7396 5.18111C30.9739 4.06094 28.008 3.48954 25.0144 3.50015C21.0123 3.50396 17.0815 4.53569 13.6157 6.49201C10.1498 8.44832 7.27051 11.2606 5.26614 14.6471C3.26177 18.0336 2.20268 21.8755 2.19494 25.7881C2.1872 29.7007 3.23107 33.5466 5.22201 36.9407L2 48.5L14.0826 45.4063C17.4189 47.221 21.1678 48.188 24.9856 48.2188C31.0547 48.219 36.8782 45.8755 41.1885 41.6984C45.4987 37.5214 47.9469 31.8489 48 25.9157C47.9797 22.955 47.362 20.0273 46.1821 17.3005C45.0023 14.5737 43.2836 12.1013 41.1245 10.0251ZM25.0144 44.3656C21.6131 44.3678 18.2741 43.474 15.3483 41.7781L14.6579 41.3563L7.49468 43.2125L9.39337 36.3782L8.93308 35.675C6.48565 31.8125 5.57224 27.2066 6.36589 22.7298C7.15955 18.253 9.60514 14.2162 13.2394 11.3842C16.8736 8.55219 21.4441 7.12167 26.0849 7.36362C30.7258 7.60557 35.1147 9.50319 38.4203 12.697C42.0335 16.1513 44.102 20.863 44.1739 25.8032C44.1283 30.7417 42.0897 35.4628 38.5015 38.9392C34.9133 42.4156 30.066 44.3658 25.0144 44.3656ZM35.3996 30.4719C34.8243 30.1907 32.0338 28.8407 31.5159 28.6719C30.9981 28.5032 30.5954 28.3907 30.2214 28.9532C29.6586 29.7072 29.0535 30.4302 28.409 31.1188C28.0926 31.5126 27.7473 31.5407 27.172 31.1188C23.8917 29.8514 21.1586 27.5172 19.4334 24.5095C18.8293 23.5251 20.0088 23.5813 21.1019 21.472C21.1826 21.3199 21.2248 21.1511 21.2248 20.9798C21.2248 20.8085 21.1826 20.6397 21.1019 20.4876C21.1019 20.2063 19.8074 17.4501 19.3471 16.3532C18.8868 15.2564 18.4265 15.4251 18.0525 15.397H16.9306C16.6399 15.4013 16.3535 15.4663 16.0906 15.5876C15.8276 15.7088 15.5942 15.8836 15.4059 16.1001C14.7604 16.7137 14.2569 17.4555 13.9294 18.2754C13.6019 19.0953 13.4579 19.9743 13.5072 20.8532C13.6876 22.9572 14.4981 24.9625 15.8374 26.6188C18.289 30.2069 21.6487 33.1136 25.5897 35.0563C27.6566 36.236 30.0588 36.7293 32.4365 36.4625C33.2283 36.3089 33.9781 35.9941 34.6373 35.5387C35.2965 35.0832 35.8503 34.4972 36.2627 33.8188C36.6447 32.9909 36.7649 32.0702 36.6079 31.1751C36.349 30.8938 35.975 30.7532 35.3996 30.4719Z" fill="white"/>
</svg>
