<svg width="192" height="66" viewBox="0 0 192 66" fill="none" xmlns="http://www.w3.org/2000/svg">
<path d="M1.26562 30.2148V12.3906H4.35938V30.2148C4.35938 31.7617 5.16797 32.9219 6.78516 33.6953C7.37109 33.9766 7.86328 34.1172 8.26172 34.1172V37.1758C6.90234 37.1758 5.54297 36.6953 4.18359 35.7344C2.26172 34.3516 1.28906 32.5117 1.26562 30.2148ZM10.0195 37.1758V34.1172C10.793 34.1172 11.5898 33.8008 12.4102 33.168C13.3945 32.3945 13.8984 31.4102 13.9219 30.2148V12.3906H16.9805V30.2148C16.9805 32.8398 15.8086 34.8203 13.4648 36.1562C12.2695 36.8359 11.1211 37.1758 10.0195 37.1758ZM18.8789 21.0391V18.1914H21.1992V12.1094H24.1875V18.1914H26.4375V21.0742H24.1875V31.1641C24.1875 32.8281 24.8672 33.7539 26.2266 33.9414C26.4844 33.9883 26.7422 34.0117 27 34.0117H27.4922L28.1602 37H26.8945C24.0117 36.9766 22.2422 35.8984 21.5859 33.7656C21.3516 32.9688 21.2344 31.9844 21.2344 30.8125L21.1992 21.0391H18.8789ZM29.6719 31.7969V23.1133C29.6719 22.0117 30.1641 20.9336 31.1484 19.8789C32.3672 18.6133 33.8906 17.9805 35.7188 17.9805V20.8281C34.3359 20.8281 33.375 21.4023 32.8359 22.5508C32.6719 22.9023 32.5898 23.2539 32.5898 23.6055V31.3398C32.5898 32.207 32.9883 32.9453 33.7852 33.5547C34.3477 33.9766 34.9922 34.1875 35.7188 34.1875V37.0352C33.4922 37.0352 31.7695 36.1328 30.5508 34.3281C29.9648 33.4375 29.6719 32.5938 29.6719 31.7969ZM37.2305 37.0352V34.1875C38.4727 34.1875 39.3633 33.625 39.9023 32.5C40.0898 32.125 40.1836 31.7617 40.1836 31.4102V23.6055C40.1836 22.6445 39.7734 21.8828 38.9531 21.3203C38.4375 20.9922 37.8516 20.8281 37.1953 20.8281V17.9805C39.3516 17.9805 41.0156 18.8594 42.1875 20.6172C42.7734 21.4844 43.0664 22.3164 43.0664 23.1133V31.7969C43.0664 32.9453 42.5742 34.0586 41.5898 35.1367C40.4414 36.3789 38.9883 37.0117 37.2305 37.0352ZM50.6953 37V34.1523H53.332C54.668 34.1523 55.582 33.6367 56.0742 32.6055C56.2148 32.3008 56.2852 32.0078 56.2852 31.7266V23.2539C56.2852 22.5977 55.9336 22.0117 55.2305 21.4961C54.6445 21.0508 53.9414 20.8281 53.1211 20.8281H50.5547V17.9805H53.1211C55.3945 17.9805 57.1289 18.8711 58.3242 20.6523C58.9102 21.5195 59.2031 22.3516 59.2031 23.1484V31.832C59.2031 32.9805 58.7109 34.082 57.7266 35.1367C56.5547 36.3789 55.0781 37 53.2969 37H50.6953ZM45.8086 43.6797V17.9805H48.9023V43.6797H45.8086ZM62.2266 15.3789C62.2266 14.6523 62.5664 14.1367 63.2461 13.832C63.4805 13.7383 63.7148 13.6914 63.9492 13.6914C64.6523 13.6914 65.168 14.0195 65.4961 14.6758C65.5898 14.9102 65.6367 15.1445 65.6367 15.3789C65.6367 16.082 65.3086 16.5977 64.6523 16.9258C64.418 17.0195 64.1836 17.0664 63.9492 17.0664C63.2227 17.0664 62.6953 16.7383 62.3672 16.082C62.2734 15.8477 62.2266 15.6133 62.2266 15.3789ZM62.4727 37V18.4727H65.4258V37H62.4727ZM68.4141 32.5703V30.8828C68.4141 29.3594 69.0117 28.2461 70.207 27.543C70.582 27.3555 72.0234 26.9102 74.5312 26.207C77.3203 25.4336 78.7148 24.7539 78.7148 24.168V23.5C78.7148 22.9375 78.5742 22.4219 78.293 21.9531C77.7539 21.0625 76.9336 20.6172 75.832 20.6172V17.9102C77.4492 17.9102 78.7969 18.4258 79.875 19.457C81.0234 20.582 81.5977 21.8945 81.5977 23.3945V33.0273C81.6211 33.7539 81.9375 34.1406 82.5469 34.1875V36.9648C81.375 36.9648 80.4258 36.5547 79.6992 35.7344C78.7617 36.5312 77.4727 36.9414 75.832 36.9648V34.2227C76.043 34.2227 76.2656 34.2109 76.5 34.1875C77.9766 33.9531 78.7148 33.0742 78.7148 31.5508V27.5078C78.1055 27.8359 76.9336 28.2109 75.1992 28.6328C72.9727 29.1719 71.7188 29.5703 71.4375 29.8281C71.1797 30.0625 71.0391 30.4375 71.0156 30.9531V31.9023C71.0391 33.4023 72.0703 34.1758 74.1094 34.2227V36.9648C72.6562 36.9648 71.3906 36.5898 70.3125 35.8398C69.0469 34.9492 68.4141 33.8594 68.4141 32.5703ZM68.6602 22.6914C68.6602 21.5664 69.1055 20.5586 69.9961 19.668C71.1445 18.4961 72.5273 17.9102 74.1445 17.9102V20.6523C73.6992 20.6523 73.2773 20.7461 72.8789 20.9336C71.8008 21.4492 71.2617 22.3633 71.2617 23.6758L68.6602 22.6914ZM93.5859 37V12.3906H106.383V15.4141H96.6445V23.2188H103.078V26.2773H96.6445V33.9766H106.383V37H93.5859ZM108.457 32.0078L111.234 31.4805C111.234 32.5352 111.785 33.3672 112.887 33.9766C113.426 34.2344 113.941 34.375 114.434 34.3984V37.1758C112.16 37.1758 110.461 36.3555 109.336 34.7148C108.75 33.8477 108.457 32.9453 108.457 32.0078ZM108.633 23.3594C108.633 21.2266 109.605 19.6445 111.551 18.6133C112.488 18.1211 113.426 17.875 114.363 17.875V20.6172C113.285 20.6172 112.453 21.0625 111.867 21.9531C111.562 22.3984 111.41 22.8672 111.41 23.3594C111.41 24.1094 111.996 24.7188 113.168 25.1875C114.059 25.5625 115.781 26.0547 118.336 26.6641C119.93 26.9922 121.066 27.7773 121.746 29.0195C122.098 29.6758 122.273 30.4141 122.273 31.2344C122.273 33.4844 121.371 35.1484 119.566 36.2266C118.512 36.8594 117.305 37.1758 115.945 37.1758V34.3984C117.023 34.3984 117.926 34.0234 118.652 33.2734C119.168 32.7344 119.426 32.1016 119.426 31.375C119.426 30.4375 118.5 29.6875 116.648 29.125C116.18 28.9844 115.43 28.7852 114.398 28.5273C113.297 28.2695 112.5 28.0586 112.008 27.8945C110.227 27.1914 109.148 26.125 108.773 24.6953C108.68 24.2734 108.633 23.8281 108.633 23.3594ZM115.91 20.6523V17.875C117.926 17.875 119.555 18.625 120.797 20.125C121.57 21.0859 121.957 22.0938 121.957 23.1484L119.18 23.6055C119.18 22.3164 118.477 21.4141 117.07 20.8984C116.648 20.7344 116.262 20.6523 115.91 20.6523ZM123.574 21.0391V18.1914H125.895V12.1094H128.883V18.1914H131.133V21.0742H128.883V31.1641C128.883 32.8281 129.562 33.7539 130.922 33.9414C131.18 33.9883 131.438 34.0117 131.695 34.0117H132.188L132.855 37H131.59C128.707 36.9766 126.938 35.8984 126.281 33.7656C126.047 32.9688 125.93 31.9844 125.93 30.8125L125.895 21.0391H123.574ZM134.191 32.5703V30.8828C134.191 29.3594 134.789 28.2461 135.984 27.543C136.359 27.3555 137.801 26.9102 140.309 26.207C143.098 25.4336 144.492 24.7539 144.492 24.168V23.5C144.492 22.9375 144.352 22.4219 144.07 21.9531C143.531 21.0625 142.711 20.6172 141.609 20.6172V17.9102C143.227 17.9102 144.574 18.4258 145.652 19.457C146.801 20.582 147.375 21.8945 147.375 23.3945V33.0273C147.398 33.7539 147.715 34.1406 148.324 34.1875V36.9648C147.152 36.9648 146.203 36.5547 145.477 35.7344C144.539 36.5312 143.25 36.9414 141.609 36.9648V34.2227C141.82 34.2227 142.043 34.2109 142.277 34.1875C143.754 33.9531 144.492 33.0742 144.492 31.5508V27.5078C143.883 27.8359 142.711 28.2109 140.977 28.6328C138.75 29.1719 137.496 29.5703 137.215 29.8281C136.957 30.0625 136.816 30.4375 136.793 30.9531V31.9023C136.816 33.4023 137.848 34.1758 139.887 34.2227V36.9648C138.434 36.9648 137.168 36.5898 136.09 35.8398C134.824 34.9492 134.191 33.8594 134.191 32.5703ZM134.438 22.6914C134.438 21.5664 134.883 20.5586 135.773 19.668C136.922 18.4961 138.305 17.9102 139.922 17.9102V20.6523C139.477 20.6523 139.055 20.7461 138.656 20.9336C137.578 21.4492 137.039 22.3633 137.039 23.6758L134.438 22.6914ZM150.082 21.0391V18.1914H152.402V12.1094H155.391V18.1914H157.641V21.0742H155.391V31.1641C155.391 32.8281 156.07 33.7539 157.43 33.9414C157.688 33.9883 157.945 34.0117 158.203 34.0117H158.695L159.363 37H158.098C155.215 36.9766 153.445 35.8984 152.789 33.7656C152.555 32.9688 152.438 31.9844 152.438 30.8125L152.402 21.0391H150.082ZM160.91 31.7969V23.0781C160.934 22 161.449 20.9336 162.457 19.8789C163.676 18.6367 165.152 18.0039 166.887 17.9805V20.7578C165.762 20.7578 164.883 21.25 164.25 22.2344C163.992 22.6562 163.863 23.043 163.863 23.3945V25.7852H171.738V23.3945C171.738 22.3398 171.199 21.5664 170.121 21.0742C169.629 20.8398 169.125 20.7227 168.609 20.7227V17.9805C170.227 17.9805 171.668 18.5547 172.934 19.7031C173.988 20.7109 174.527 21.8242 174.551 23.043V28.6328H163.863V31.7969C163.863 32.4531 164.238 33.0625 164.988 33.625C165.598 34.0469 166.242 34.2578 166.922 34.2578V37C164.789 37 163.113 36.1328 161.895 34.3984C161.238 33.4844 160.91 32.6172 160.91 31.7969ZM168.609 37V34.2227C170.016 34.2227 171.07 33.6133 171.773 32.3945C171.914 32.1367 172.02 31.8906 172.09 31.6562L174.586 32.5703C174.164 34.1875 173.203 35.4062 171.703 36.2266C170.742 36.7422 169.711 37 168.609 37ZM176.695 32.0078L179.473 31.4805C179.473 32.5352 180.023 33.3672 181.125 33.9766C181.664 34.2344 182.18 34.375 182.672 34.3984V37.1758C180.398 37.1758 178.699 36.3555 177.574 34.7148C176.988 33.8477 176.695 32.9453 176.695 32.0078ZM176.871 23.3594C176.871 21.2266 177.844 19.6445 179.789 18.6133C180.727 18.1211 181.664 17.875 182.602 17.875V20.6172C181.523 20.6172 180.691 21.0625 180.105 21.9531C179.801 22.3984 179.648 22.8672 179.648 23.3594C179.648 24.1094 180.234 24.7188 181.406 25.1875C182.297 25.5625 184.02 26.0547 186.574 26.6641C188.168 26.9922 189.305 27.7773 189.984 29.0195C190.336 29.6758 190.512 30.4141 190.512 31.2344C190.512 33.4844 189.609 35.1484 187.805 36.2266C186.75 36.8594 185.543 37.1758 184.184 37.1758V34.3984C185.262 34.3984 186.164 34.0234 186.891 33.2734C187.406 32.7344 187.664 32.1016 187.664 31.375C187.664 30.4375 186.738 29.6875 184.887 29.125C184.418 28.9844 183.668 28.7852 182.637 28.5273C181.535 28.2695 180.738 28.0586 180.246 27.8945C178.465 27.1914 177.387 26.125 177.012 24.6953C176.918 24.2734 176.871 23.8281 176.871 23.3594ZM184.148 20.6523V17.875C186.164 17.875 187.793 18.625 189.035 20.125C189.809 21.0859 190.195 22.0938 190.195 23.1484L187.418 23.6055C187.418 22.3164 186.715 21.4141 185.309 20.8984C184.887 20.7344 184.5 20.6523 184.148 20.6523Z" fill="white"/>
<path d="M2.892 58.584L0.348 54.48H1.308L3.612 58.26H5.208V54.48H6.132V58.26H7.728L10.02 54.48H10.992L8.436 58.584L11.304 63H10.332L7.848 59.004H6.132V63H5.208V59.004H3.492L1.008 63H0.036L2.892 58.584ZM14.7038 61.74L19.9838 54.48H20.6798V63H19.8398V55.86L14.6438 63H13.8758V54.48H14.7038V61.74ZM26.2123 56.736C26.1163 57.864 25.9923 58.828 25.8403 59.628C25.6963 60.428 25.5123 61.084 25.2883 61.596C25.0723 62.1 24.8083 62.472 24.4963 62.712C24.1923 62.944 23.8323 63.06 23.4163 63.06L23.2723 62.256C23.4323 62.248 23.5843 62.216 23.7283 62.16C23.8803 62.104 24.0243 62.004 24.1603 61.86C24.2963 61.708 24.4243 61.504 24.5443 61.248C24.6643 60.984 24.7763 60.648 24.8803 60.24C24.9843 59.824 25.0763 59.324 25.1563 58.74C25.2443 58.156 25.3203 57.464 25.3843 56.664L25.5643 54.48H29.8963V63H29.0683V55.224H26.3323L26.2123 56.736ZM36.957 63.06C36.365 63.06 35.821 62.94 35.325 62.7C34.837 62.452 34.417 62.128 34.065 61.728C33.713 61.32 33.441 60.856 33.249 60.336C33.057 59.816 32.961 59.284 32.961 58.74C32.961 58.172 33.061 57.628 33.261 57.108C33.469 56.588 33.753 56.128 34.113 55.728C34.473 55.328 34.897 55.012 35.385 54.78C35.873 54.54 36.401 54.42 36.969 54.42C37.561 54.42 38.101 54.548 38.589 54.804C39.085 55.052 39.505 55.38 39.849 55.788C40.201 56.196 40.473 56.66 40.665 57.18C40.857 57.692 40.953 58.216 40.953 58.752C40.953 59.32 40.849 59.864 40.641 60.384C40.441 60.904 40.161 61.364 39.801 61.764C39.449 62.156 39.029 62.472 38.541 62.712C38.053 62.944 37.525 63.06 36.957 63.06ZM33.801 58.74C33.801 59.204 33.877 59.652 34.029 60.084C34.181 60.508 34.397 60.888 34.677 61.224C34.957 61.552 35.289 61.816 35.673 62.016C36.057 62.208 36.485 62.304 36.957 62.304C37.437 62.304 37.873 62.2 38.265 61.992C38.657 61.784 38.989 61.512 39.261 61.176C39.533 60.84 39.741 60.46 39.885 60.036C40.037 59.612 40.113 59.18 40.113 58.74C40.113 58.276 40.033 57.832 39.873 57.408C39.721 56.976 39.505 56.596 39.225 56.268C38.945 55.94 38.613 55.68 38.229 55.488C37.845 55.288 37.421 55.188 36.957 55.188C36.477 55.188 36.041 55.292 35.649 55.5C35.257 55.7 34.925 55.968 34.653 56.304C34.381 56.64 34.169 57.02 34.017 57.444C33.873 57.868 33.801 58.3 33.801 58.74ZM49.2567 52.008C49.2407 52.392 49.0767 52.7 48.7647 52.932C48.4607 53.156 48.0367 53.268 47.4927 53.268C46.9487 53.268 46.5207 53.156 46.2087 52.932C45.9047 52.7 45.7447 52.392 45.7287 52.008H46.2447C46.2447 52.112 46.2767 52.212 46.3407 52.308C46.4047 52.404 46.4927 52.488 46.6047 52.56C46.7167 52.632 46.8487 52.692 47.0007 52.74C47.1527 52.78 47.3207 52.8 47.5047 52.8C47.8487 52.8 48.1327 52.728 48.3567 52.584C48.5887 52.432 48.7207 52.24 48.7527 52.008H49.2567ZM44.8167 61.74L50.0967 54.48H50.7927V63H49.9527V55.86L44.7567 63H43.9887V54.48H44.8167V61.74ZM59.7319 58.26H61.0279L63.8119 54.48H64.7719L61.7839 58.584L65.0839 63H64.1239L61.0999 59.004H59.7319V63H58.9039V54.48H59.7319V58.26ZM70.6545 63.06C70.0625 63.06 69.5185 62.94 69.0225 62.7C68.5345 62.452 68.1145 62.128 67.7625 61.728C67.4105 61.32 67.1385 60.856 66.9465 60.336C66.7545 59.816 66.6585 59.284 66.6585 58.74C66.6585 58.172 66.7585 57.628 66.9585 57.108C67.1665 56.588 67.4505 56.128 67.8105 55.728C68.1705 55.328 68.5945 55.012 69.0825 54.78C69.5705 54.54 70.0985 54.42 70.6665 54.42C71.2585 54.42 71.7985 54.548 72.2865 54.804C72.7825 55.052 73.2025 55.38 73.5465 55.788C73.8985 56.196 74.1705 56.66 74.3625 57.18C74.5545 57.692 74.6505 58.216 74.6505 58.752C74.6505 59.32 74.5465 59.864 74.3385 60.384C74.1385 60.904 73.8585 61.364 73.4985 61.764C73.1465 62.156 72.7265 62.472 72.2385 62.712C71.7505 62.944 71.2225 63.06 70.6545 63.06ZM67.4985 58.74C67.4985 59.204 67.5745 59.652 67.7265 60.084C67.8785 60.508 68.0945 60.888 68.3745 61.224C68.6545 61.552 68.9865 61.816 69.3705 62.016C69.7545 62.208 70.1825 62.304 70.6545 62.304C71.1345 62.304 71.5705 62.2 71.9625 61.992C72.3545 61.784 72.6865 61.512 72.9585 61.176C73.2305 60.84 73.4385 60.46 73.5825 60.036C73.7345 59.612 73.8105 59.18 73.8105 58.74C73.8105 58.276 73.7305 57.832 73.5705 57.408C73.4185 56.976 73.2025 56.596 72.9225 56.268C72.6425 55.94 72.3105 55.68 71.9265 55.488C71.5425 55.288 71.1185 55.188 70.6545 55.188C70.1745 55.188 69.7385 55.292 69.3465 55.5C68.9545 55.7 68.6225 55.968 68.3505 56.304C68.0785 56.64 67.8665 57.02 67.7145 57.444C67.5705 57.868 67.4985 58.3 67.4985 58.74ZM85.2222 63V56.004L82.1142 61.416H81.6222L78.5142 56.004V63H77.6742V54.48H78.5382L81.8622 60.312L85.2102 54.48H86.0622V63H85.2222ZM89.6848 54.48H96.2608V63H95.4208V55.224H90.5128V63H89.6848V54.48ZM101.787 56.736C101.691 57.864 101.567 58.828 101.415 59.628C101.271 60.428 101.087 61.084 100.863 61.596C100.647 62.1 100.383 62.472 100.071 62.712C99.767 62.944 99.407 63.06 98.991 63.06L98.847 62.256C99.007 62.248 99.159 62.216 99.303 62.16C99.455 62.104 99.599 62.004 99.735 61.86C99.871 61.708 99.999 61.504 100.119 61.248C100.239 60.984 100.351 60.648 100.455 60.24C100.559 59.824 100.651 59.324 100.731 58.74C100.819 58.156 100.895 57.464 100.959 56.664L101.139 54.48H105.471V63H104.643V55.224H101.907L101.787 56.736ZM114.824 62.256V63H109.1V54.48H114.716V55.224H109.94V58.296H114.104V59.004H109.94V62.256H114.824ZM118.692 58.26H119.988L122.772 54.48H123.732L120.744 58.584L124.044 63H123.084L120.06 59.004H118.692V63H117.864V54.48H118.692V58.26ZM125.607 58.68C125.607 58.168 125.695 57.66 125.871 57.156C126.055 56.644 126.319 56.188 126.663 55.788C127.007 55.388 127.431 55.064 127.935 54.816C128.439 54.56 129.011 54.432 129.651 54.432C130.411 54.432 131.059 54.604 131.595 54.948C132.139 55.292 132.539 55.74 132.795 56.292L132.135 56.7C131.999 56.42 131.831 56.184 131.631 55.992C131.439 55.8 131.231 55.644 131.007 55.524C130.783 55.404 130.551 55.32 130.311 55.272C130.071 55.216 129.835 55.188 129.603 55.188C129.091 55.188 128.639 55.292 128.247 55.5C127.855 55.708 127.523 55.98 127.251 56.316C126.987 56.652 126.787 57.032 126.651 57.456C126.515 57.872 126.447 58.296 126.447 58.728C126.447 59.2 126.527 59.652 126.687 60.084C126.855 60.516 127.079 60.9 127.359 61.236C127.647 61.564 127.983 61.828 128.367 62.028C128.759 62.22 129.183 62.316 129.639 62.316C129.879 62.316 130.123 62.288 130.371 62.232C130.627 62.168 130.871 62.072 131.103 61.944C131.343 61.808 131.563 61.644 131.763 61.452C131.963 61.252 132.131 61.012 132.267 60.732L132.963 61.092C132.827 61.412 132.635 61.696 132.387 61.944C132.139 62.184 131.863 62.388 131.559 62.556C131.255 62.724 130.931 62.852 130.587 62.94C130.251 63.028 129.919 63.072 129.591 63.072C129.007 63.072 128.471 62.944 127.983 62.688C127.495 62.432 127.075 62.1 126.723 61.692C126.371 61.276 126.095 60.808 125.895 60.288C125.703 59.76 125.607 59.224 125.607 58.68Z" fill="white"/>
</svg>
